<?xml version="1.0" standalone="no"?>
<!DOCTYPE svg PUBLIC "-//W3C//DTD SVG 20010904//EN"
 "http://www.w3.org/TR/2001/REC-SVG-20010904/DTD/svg10.dtd">
<svg version="1.0" xmlns="http://www.w3.org/2000/svg"
 width="401.000000pt" height="421.000000pt" viewBox="0 0 401.000000 421.000000"
 preserveAspectRatio="xMidYMid meet">

<g transform="translate(0.000000,421.000000) scale(0.100000,-0.100000)"
fill="#000000" stroke="none">
<path d="M830 4151 c-375 -81 -674 -368 -777 -746 l-28 -100 -3 -1145 c-2
-826 0 -1171 8 -1240 29 -236 133 -443 306 -611 132 -128 273 -208 454 -258
l95 -26 1070 -3 c736 -2 1096 1 1154 8 370 49 704 318 825 666 62 178 59 116
63 1314 4 1143 1 1256 -38 1405 -24 93 -81 219 -136 302 -50 76 -162 194 -243
255 -81 62 -239 140 -345 170 l-80 23 -1120 2 c-1052 2 -1125 1 -1205 -16z
m2345 -245 c294 -89 501 -311 560 -601 14 -71 15 -206 13 -1245 l-3 -1165 -33
-95 c-18 -52 -44 -113 -57 -136 -128 -220 -340 -362 -589 -394 -54 -7 -418
-10 -1111 -8 -1025 3 -1030 3 -1107 25 -236 67 -413 217 -513 436 -72 158 -68
90 -73 1297 -4 1180 -1 1245 47 1388 89 258 310 451 581 507 52 11 274 13
1145 11 1008 -2 1084 -3 1140 -20z"/>
<path d="M1908 3703 c129 -130 183 -211 245 -368 42 -106 85 -272 94 -367 l6
-68 693 0 694 0 0 113 c-1 261 -54 414 -199 569 -85 91 -188 158 -309 199
l-97 34 -622 3 -623 3 118 -118z"/>
<path d="M910 3734 c-69 -9 -194 -36 -214 -46 -82 -43 -186 -166 -247 -293
-69 -142 -69 -136 -69 -937 l0 -717 38 -11 c375 -104 742 -106 992 -4 178 72
318 201 403 369 56 113 107 330 107 458 l0 57 -625 0 -625 0 0 140 0 140 625
0 c604 0 625 1 625 19 0 84 -54 279 -105 381 -105 209 -297 362 -530 421 -79
19 -294 33 -375 23z"/>
<path d="M2467 2613 c-4 -3 -7 -185 -7 -403 l0 -397 303 -6 c327 -7 452 -20
591 -64 95 -30 162 -62 229 -109 26 -19 49 -34 52 -34 3 0 5 230 5 510 l0 510
-583 0 c-321 0 -587 -3 -590 -7z"/>
<path d="M2104 1968 c-54 -108 -101 -174 -182 -260 -155 -163 -359 -268 -612
-314 -117 -22 -477 -25 -615 -6 -85 12 -258 51 -298 67 -18 8 -19 -2 -15 -241
4 -235 6 -253 30 -326 41 -123 92 -204 187 -298 71 -71 103 -94 181 -133 158
-78 149 -77 798 -77 l572 0 0 830 c0 457 -2 830 -5 830 -3 0 -21 -33 -41 -72z"/>
<path d="M2460 1065 l0 -467 323 4 c298 4 328 6 397 27 146 44 218 100 271
215 48 103 60 228 34 349 -28 133 -90 213 -208 267 -113 52 -183 61 -514 67
l-303 5 0 -467z"/>
</g>
</svg>
